<svg xmlns="http://www.w3.org/2000/svg" viewBox="0 0 407.7 190.74"><title>cwlogo_black_1</title><g id="Layer_2" data-name="Layer 2"><g id="Layer_1-2" data-name="Layer 1"><path d="M21.56,108.24l.38,1c.14.39.29.69.36,1a1.34,1.34,0,0,1,.06.4,3.66,3.66,0,0,1,0,.56c-.08,1.09-.19,2.17-.24,3.26-.13,2.17-.21,4.34-.2,6.51a84.74,84.74,0,0,0,1,12.94,62.38,62.38,0,0,0,3.22,12.5A54.45,54.45,0,0,0,32,157.8a66.35,66.35,0,0,0,18.36,18,78.14,78.14,0,0,0,36.57,12.46A67.86,67.86,0,0,0,100,188.1a64.67,64.67,0,0,0,6.47-1.08,60,60,0,0,0,6.32-1.82,53.56,53.56,0,0,0,11.8-5.77,52.82,52.82,0,0,0,17.69-19.19,49.59,49.59,0,0,0,5.82-25.42h0l.8.09a54.68,54.68,0,0,1-9.28,19.39,51.1,51.1,0,0,1-16.34,14,80.62,80.62,0,0,1-20.21,7.5,47.57,47.57,0,0,1-21.56.52C74.32,174.72,68,170.73,62.55,166A72,72,0,0,1,55,158.19a60.27,60.27,0,0,1-6.28-8.88,54.16,54.16,0,0,1-4.4-10,72.12,72.12,0,0,1-2.51-10.64,88.13,88.13,0,0,1-1-10.87c-.1-3.61-.16-7.22-.11-10.83h0l2.13,2.09c-3.66,0-7.37.06-11.09,0-1.86,0-3.72-.12-5.57-.26-.93-.07-1.86-.16-2.79-.26L22,108.36A4.05,4.05,0,0,1,21.56,108.24Zm-2.49-.79,1.34-.09a13.61,13.61,0,0,1,1.69,0l1.37.07c.91,0,1.82,0,2.73,0,1.83,0,3.66-.08,5.49-.18,3.66-.21,7.31-.56,11-.85l.69,0v.72h0c0,7.14-.23,14.29.77,21.28q.16,1.31.42,2.61c.16.86.31,1.73.52,2.58.37,1.72.77,3.43,1.27,5.11a53.47,53.47,0,0,0,4,9.74,60.21,60.21,0,0,0,13.21,16.44c5.26,4.7,11.4,8.58,18.27,10.17a46.38,46.38,0,0,0,21-.4,79.62,79.62,0,0,0,20-7.27,50.26,50.26,0,0,0,16.1-13.64,53.91,53.91,0,0,0,9.25-19l.72-2.78.07,2.86h0a49.28,49.28,0,0,1-1.44,13.25,55.14,55.14,0,0,1-4.64,12.48A53.47,53.47,0,0,1,125,180.12c-14.93,9.79-34,12.93-51.64,8.94a77.42,77.42,0,0,1-24.81-10.53,68.45,68.45,0,0,1-19.36-18.86,63.47,63.47,0,0,1-9.89-25.21A87.28,87.28,0,0,1,18.11,121c-.05-2.25,0-4.51.11-6.76,0-1.12.14-2.24.21-3.36,0-.23.05-.69.1-1.1s.13-.83.23-1.24S19,107.8,19.07,107.45Z"/><path d="M157.56,1.31a4.86,4.86,0,0,1,0,.67l-.14.75A12,12,0,0,1,157,4.17a10.76,10.76,0,0,1-1.53,2.62,15,15,0,0,1-4.7,3.78,26.29,26.29,0,0,1-11.66,2.94C131,13.78,123,12,115.36,9.62c-1.93-.59-3.82-1.24-5.71-1.78s-3.82-1-5.76-1.42A72.65,72.65,0,0,0,92.14,5a70.59,70.59,0,0,0-11.81.53A37.42,37.42,0,0,0,69.12,8.69,68,68,0,0,0,50,22.22a70.25,70.25,0,0,0-7.7,8.89,83.55,83.55,0,0,0-6.31,10,103.87,103.87,0,0,0-5,10.7c-1.43,3.67-2.67,7.42-3.73,11.22s-1.89,7.66-2.62,11.55L24.38,76l-.12.73-.06.36c-.19.1-.16.23-.19.35l-.53,2.92c-.34,2-.64,3.91-.85,5.88l-1.21-1.49h0c7.14.74,14.45,0,21.8-.56l-1.16,1.2h0c.54-14.64,3.2-29.44,9-43A76.59,76.59,0,0,1,62.4,23.27a50,50,0,0,1,8-7.77A38.26,38.26,0,0,1,80.17,10a34,34,0,0,1,11-2.23,46.35,46.35,0,0,1,11,1,83.3,83.3,0,0,1,10.6,3,61.14,61.14,0,0,1,10.16,4.29,30.63,30.63,0,0,1,8.68,6.85,22.49,22.49,0,0,1,5.05,9.86,13.82,13.82,0,0,1,0,5.62,12.08,12.08,0,0,1-2.51,5A15.73,15.73,0,0,1,129.87,47c-1.58,1-3.25,1.68-4.81,2.62l0-.11h0c.72,1.09,2.07,1.4,3.29,1.66a19.6,19.6,0,0,0,3.83.29,35.63,35.63,0,0,0,3.86-.3c1.28-.13,2.57-.31,3.83-.56a25.56,25.56,0,0,0,7.24-2.44,12.48,12.48,0,0,0,5.33-5.19,12.43,12.43,0,0,0,1.13-7.28,16.2,16.2,0,0,0-2.69-7,22.76,22.76,0,0,0-5.59-5.25,29.15,29.15,0,0,0-6.91-3.61h0A27.89,27.89,0,0,0,147.7,21a23.7,23.7,0,0,0,4.56-.57,8.48,8.48,0,0,0,3.89-1.76,5.19,5.19,0,0,0,1.25-1.61,8.33,8.33,0,0,0,.71-2,22.43,22.43,0,0,0,.4-4.52,38.19,38.19,0,0,0-.31-4.64c-.08-.77-.18-1.55-.3-2.32l-.21-1.15-.11-.58c0-.09,0-.22,0-.27S157.57,1.42,157.56,1.31Zm0-.18a1.78,1.78,0,0,1,.2.32l.12.3.22.55c.13.38.25.75.37,1.13.23.76.44,1.53.63,2.3a35.91,35.91,0,0,1,.72,4.74,17.37,17.37,0,0,1-.22,4.87,8,8,0,0,1-2.38,4.55,9.65,9.65,0,0,1-4.69,1.9,20.62,20.62,0,0,1-4.84,0A38.53,38.53,0,0,1,143,21a44.47,44.47,0,0,1-4.57-1.2h0a41.34,41.34,0,0,1,7.14,3.25,22.25,22.25,0,0,1,6.16,5,15.09,15.09,0,0,1,2,3.49,14.06,14.06,0,0,1,1.06,3.92,13.09,13.09,0,0,1-1.44,7.93A14.36,14.36,0,0,1,147.63,49a25.12,25.12,0,0,1-7.54,2.57,33.13,33.13,0,0,1-7.89.64,19.64,19.64,0,0,1-3.95-.53,6.77,6.77,0,0,1-1.87-.72,3.38,3.38,0,0,1-1.44-1.41h0l0-.06.07,0c1.51-1,3.12-1.91,4.64-2.89a14.91,14.91,0,0,0,4-3.56,12.13,12.13,0,0,0,2.11-10,21.1,21.1,0,0,0-4.84-9.41A30,30,0,0,0,122.43,17a61,61,0,0,0-10-4.17,80.64,80.64,0,0,0-10.51-2.7A45,45,0,0,0,91.2,9.37a32.84,32.84,0,0,0-10.35,2.37,35.84,35.84,0,0,0-9.11,5.44,47.72,47.72,0,0,0-7.5,7.6A78.14,78.14,0,0,0,53.42,43.32,105.41,105.41,0,0,0,47.14,64c-.69,3.54-1.23,7.12-1.63,10.71s-.66,7.2-.94,10.82h0l-.06,1.11-1.11.08c-7.29.55-14.7,1.44-22.25.74h0l-1.35-.11.14-1.38c.22-2,.42-4,.66-6l.4-3c0-.13.08-.25-.07-.4l.07-.37.12-.75.27-1.49C22.14,70,23,66,24.08,62.08s2.37-7.76,3.85-11.54a107.78,107.78,0,0,1,5.22-11,87.2,87.2,0,0,1,6.62-10.27,66.87,66.87,0,0,1,8.17-9.14,77,77,0,0,1,9.49-7.69,60.57,60.57,0,0,1,10.71-6A38.84,38.84,0,0,1,80.06,3.35a72.78,72.78,0,0,1,12.17-.26,75.77,75.77,0,0,1,12,1.73c2,.46,3.93,1,5.85,1.59s3.81,1.3,5.69,1.93c7.52,2.51,15.33,4.48,23.29,4.4a25.65,25.65,0,0,0,11.45-2.59,14.43,14.43,0,0,0,4.66-3.57,10.44,10.44,0,0,0,1.55-2.5,12.18,12.18,0,0,0,.48-1.4l.16-.73A6.2,6.2,0,0,1,157.54,1.13Z"/><path d="M224.07,53.94l-4.9-13.37c-.83-2.22-1.62-4.47-2.48-6.66a47.05,47.05,0,0,1-2.28-6.82,14,14,0,0,1,.16-7.24,9.13,9.13,0,0,1,4.3-5.75,6.86,6.86,0,0,1,1.76-.58,6.76,6.76,0,0,1,1.85,0,6.87,6.87,0,0,1,3.36,1.42,7.62,7.62,0,0,1,2.95,6.34v0l-.1,0c.35-1.07.78-2.07,1.06-3.14a17,17,0,0,0,.51-3.24,13.83,13.83,0,0,0-1.17-6.39A11.54,11.54,0,0,0,225,3.56a14.17,14.17,0,0,0-6.07-2.2A15.34,15.34,0,0,0,206.82,5,14.22,14.22,0,0,0,202,16.52v0l.21,3-1-2.86a26.66,26.66,0,0,0-2.84-5.89,31.64,31.64,0,0,0-4.12-5.09,14.47,14.47,0,0,0-11.86-4.17,15.48,15.48,0,0,0-6.15,2,10.89,10.89,0,0,0-4.43,4.64,11.16,11.16,0,0,0-1,3.11,15.62,15.62,0,0,0-.11,3.28A19.86,19.86,0,0,0,172.4,21l0,0h-.12a9.91,9.91,0,0,1,4.31-3.49,11.57,11.57,0,0,1,2.74-.68l1.42,0c.48,0,.95.13,1.42.2a11.72,11.72,0,0,1,5,2.67A24.1,24.1,0,0,1,190.91,24,95,95,0,0,1,201,43.85c2.64,6.93,5.32,13.8,8,20.7l4.05,10.34,2,5.18,1,2.58a8.5,8.5,0,0,1,.68,2.71v0l-1.14-.79a10,10,0,0,0,2.66.32L221,85c1.77,0,3.55,0,5.32,0l10.64,0H237l-.74,1.07a34.39,34.39,0,0,1-1.67-4l-1.51-4-3-8Zm1.44-.55,6.23,16,3.07,8,1.54,4a32.09,32.09,0,0,1,1.38,4.08l.29,1.21-1-.14h-.05l-10.64,0c-1.78,0-3.55,0-5.32,0l-2.66,0a10,10,0,0,0-2.66.31l-.42.12-.72-.91,0,0a8.75,8.75,0,0,1-1.25-2.5l-.93-2.61-1.86-5.23-3.71-10.47c-2.48-7-5-14-7.38-20.95-1.22-3.48-2.51-6.92-4-10.27a78.44,78.44,0,0,0-5.2-9.7,23.66,23.66,0,0,0-3.46-4.19,11,11,0,0,0-4.61-2.7c-.44-.07-.88-.18-1.33-.24l-1.35,0a11.48,11.48,0,0,0-2.65.56,9.78,9.78,0,0,0-4.32,3.25l-.07.1-.05-.1,0-.05a20.21,20.21,0,0,1-1.8-6.43,15.19,15.19,0,0,1,0-3.37A11.54,11.54,0,0,1,171.43,8,11.12,11.12,0,0,1,176,3.1,15.88,15.88,0,0,1,182.37.89a14.85,14.85,0,0,1,6.74.67A15.94,15.94,0,0,1,194.9,5.1a23.48,23.48,0,0,1,2.29,2.5,31.71,31.71,0,0,1,2,2.72A23.82,23.82,0,0,1,202,16.47l-.78.15v0a13.63,13.63,0,0,1,.93-6.76,14.34,14.34,0,0,1,4.05-5.5A16.19,16.19,0,0,1,219,.65,14.64,14.64,0,0,1,225.31,3a12.18,12.18,0,0,1,4.27,5.21,14.39,14.39,0,0,1,1.12,6.63,13.93,13.93,0,0,1-1.92,6.4l-.14.22.05-.24v0a10.41,10.41,0,0,0-.92-3.36,7.19,7.19,0,0,0-2.19-2.64,6,6,0,0,0-6.44-.61,8.45,8.45,0,0,0-3.85,5.43,13.29,13.29,0,0,0,0,6.83,45.58,45.58,0,0,0,2.38,6.62c.92,2.21,1.76,4.42,2.63,6.63Z"/><path d="M406.47,11.32a10.26,10.26,0,0,0-4.57-5.55,10.64,10.64,0,0,0-3.41-1.27,12.93,12.93,0,0,0-3.65-.26,9.57,9.57,0,0,0-6.27,3.05,16.31,16.31,0,0,0-3.9,6.14h0l-1.8,4.42-.6-4.74a11.39,11.39,0,0,0-5-8.1,10.6,10.6,0,0,0-4.62-1.67,14.08,14.08,0,0,0-5.07.37A10.05,10.05,0,0,0,363.14,6a8.79,8.79,0,0,0-2.53,4.35,10.78,10.78,0,0,0,.11,5.23,10.55,10.55,0,0,0,2.61,4.59l0,0-.32,0A8.4,8.4,0,0,1,367,16.51a7.76,7.76,0,0,1,2.7-.76,6.15,6.15,0,0,1,2.83.55,8.49,8.49,0,0,1,3.82,4.12,14,14,0,0,1,1.33,5.42c.18,3.77-1,7.34-2,10.68s-2.1,6.75-3.15,10.13l-6.34,20.23c-2.09,6.75-4.26,13.48-6.43,20.2,0,0,0,0,0,0l-1.86-2.63,6.31,1.19h0l-.89.62c1.76-5.25,3.71-10.43,5.55-15.65L374.43,55l11.2-31.26,0-.06,0,0a14.77,14.77,0,0,1,3.57-4.52,12.42,12.42,0,0,1,2.44-1.61,11.43,11.43,0,0,1,2.75-1,8.55,8.55,0,0,1,3-.11,7.38,7.38,0,0,1,2.88.93,6.86,6.86,0,0,1,2.23,2.09,12,12,0,0,1,1.27,2.8l0,0-1.5-.52a6.8,6.8,0,0,0,2.26-2,12.53,12.53,0,0,0,1.5-2.61A8.8,8.8,0,0,0,406.47,11.32Zm.91-.26a9.27,9.27,0,0,1,.28,3.27,13.22,13.22,0,0,1-.72,3.18,13.67,13.67,0,0,1-1.5,2.89c-.6.91-1.29,1.75-1.92,2.7L402,25.37l0-2.8v0a3.86,3.86,0,0,0-.76-2.26,5.36,5.36,0,0,0-1.73-1.62,6,6,0,0,0-2.3-.73,7.28,7.28,0,0,0-2.47.11,10,10,0,0,0-2.38.89,11.38,11.38,0,0,0-2.12,1.42,13.25,13.25,0,0,0-3.15,4l0-.09-11,31.32L370.6,71.28C368.74,76.49,367,81.73,365,86.92l-.21.58-.67,0h0l-6.33.47-2.06.15.66-2.14v0c2.2-6.72,4.39-13.43,6.7-20.11l6.85-20.06c1.16-3.34,2.25-6.7,3.46-10s2.43-6.57,2.44-9.91a12.72,12.72,0,0,0-.9-4.84,7.16,7.16,0,0,0-3-3.69,5,5,0,0,0-2.27-.59,6.6,6.6,0,0,0-2.4.52,9,9,0,0,0-3.91,3.17l-.17.23-.15-.2,0,0a13.1,13.1,0,0,1-2.68-4.75,12,12,0,0,1-.54-5.48,9.08,9.08,0,0,1,2.46-5.08,11.36,11.36,0,0,1,4.92-2.89,15.51,15.51,0,0,1,5.65-.73,12.5,12.5,0,0,1,5.58,1.68,12.63,12.63,0,0,1,4.22,4.1,14.43,14.43,0,0,1,2.1,5.5l-2.41-.32h0a23.38,23.38,0,0,1,2.16-3.52c.42-.54.86-1.06,1.33-1.56s.9-1,1.4-1.44a11.78,11.78,0,0,1,3.45-2.35,11.18,11.18,0,0,1,4.05-.93,14.68,14.68,0,0,1,4.05.45,12,12,0,0,1,3.77,1.58A11.43,11.43,0,0,1,407.38,11.06Z"/><path d="M307.81,55.64l-8.55-26.45c-.73-2.14-1.81-4.33-1.87-6.83A7.55,7.55,0,0,1,300.58,16a7.43,7.43,0,0,1,7.14-.68,6.32,6.32,0,0,1,2.84,2.4,5.21,5.21,0,0,1,.91,3.56h0l-.62-.17c.33-1,.74-1.95,1-2.94a15.26,15.26,0,0,0,.59-3,13.42,13.42,0,0,0-.11-3,11.23,11.23,0,0,0-.91-2.86,12.64,12.64,0,0,0-9.35-6.75,13.45,13.45,0,0,0-3-.14,14.88,14.88,0,0,0-2.95.41,11.76,11.76,0,0,0-5.07,2.7,13.89,13.89,0,0,0-3.32,4.75,19,19,0,0,0-1.12,2.71,13.61,13.61,0,0,0-.56,2.91v0l-.73,8.9L283.67,16a19.37,19.37,0,0,0-6-11,14,14,0,0,0-5.58-2.88,16.6,16.6,0,0,0-6.4-.32,13.84,13.84,0,0,0-6,2.16A10,10,0,0,0,256,9.05a17.7,17.7,0,0,0-.7,6.53,17.36,17.36,0,0,0,1.86,6.34l0,0h-.27a12,12,0,0,1,3.38-4.49A9.61,9.61,0,0,1,262.76,16a9,9,0,0,1,2.84-.56A8.55,8.55,0,0,1,271.18,17a12.41,12.41,0,0,1,3.7,4.49c1.78,3.42,2.62,7.13,3.71,10.61l3.3,10.6c.55,1.67,1.22,3.45,1.82,5.2.31.89.61,1.78.89,2.69.14.46.27.92.39,1.42.07.23.12.51.18.77s0,.33.06.49a2.62,2.62,0,0,1,0,.78l-1.34,5.49q-.64,2.7-1.34,5.39l-2.76,10.76L278.4,81l-.69,2.69a2.69,2.69,0,0,1-1.88,2.37,0,0,0,0,0,0,0L275,85h7.16l-.89.65c.84-3.06,1.78-6.1,2.67-9.15l2.69-9.14v0l.9-3.06,1.09,3,6.62,18.28v0l-1.08-.77,24.22.23h0l-1.09,1.48-4.71-15.45Zm1.13-.36,5.22,15.28,5.28,15.27.49,1.42-1.58.06h0l-24.21,1.1-1.42.07-.86-1.69a0,0,0,0,1,0,0l-4.23-19.13h0a0,0,0,0,0,0,0L285.36,77l-1.11,4.64A35.76,35.76,0,0,1,283,86.18l-.28.68-.61,0h0L275,87l-1.39,0,.35-1.38v0c1.92-7.15,4-14.26,6-21.39l3-10.65s0-.24,0-.42-.06-.41-.12-.63c-.09-.43-.2-.87-.32-1.31-.24-.88-.5-1.76-.77-2.64-.54-1.77-1.13-3.49-1.66-5.32l-2.91-10.72c-1-3.59-1.66-7.23-3.23-10.52a11.5,11.5,0,0,0-3.21-4.23,7.77,7.77,0,0,0-5-1.51,8.43,8.43,0,0,0-2.64.42,9,9,0,0,0-2.36,1.27,12.42,12.42,0,0,0-3.44,4.17l-.14.25-.13-.24,0,0a16.47,16.47,0,0,1-2.21-6.43,18.45,18.45,0,0,1,.47-6.85A11.1,11.1,0,0,1,259,3,15.43,15.43,0,0,1,265.49.39a18.18,18.18,0,0,1,7,.09,15.68,15.68,0,0,1,6.42,3,18.46,18.46,0,0,1,4.58,5.42A22.24,22.24,0,0,1,285,12.1a21.73,21.73,0,0,1,1.05,3.43l-2.43.16v0a18.31,18.31,0,0,1,.38-3.45,14,14,0,0,1,1-3.34,16.17,16.17,0,0,1,4.25-5.54,14.45,14.45,0,0,1,6.32-3A16.81,16.81,0,0,1,299.06,0a15.89,15.89,0,0,1,3.43.33,15,15,0,0,1,6.2,2.87,13.22,13.22,0,0,1,4.18,5.35,12.3,12.3,0,0,1,.88,3.3,14.69,14.69,0,0,1,0,3.38,16.28,16.28,0,0,1-.78,3.24,9.25,9.25,0,0,1-1.52,2.94l-.85,1,.23-1.18h0a9.76,9.76,0,0,0-1.1-3,5.44,5.44,0,0,0-2.39-2,6.41,6.41,0,0,0-6.13.59,6.5,6.5,0,0,0-2.73,5.53c0,2.18,1.05,4.29,1.82,6.5Z"/><path d="M259.31,147.45c-2.6-6.43-5.29-12.91-7.9-19.5-1.3-3.28-2.58-6.58-3.84-9.87l-3.69-9.77.79.54a19.94,19.94,0,0,1-5.34.21c-1.77,0-3.55-.13-5.33-.21l-5.33-.24a50.07,50.07,0,0,0-5.34,0l.54-.77c.85-.08,1.27,0,1.47.15s.18.4.28.6l.45,1.24.91,2.48,1.81,5,3.61,9.91c2.36,6.63,4.77,13.23,7.09,19.88s4.64,13.28,6.92,19.93l3.36,10c.53,1.68,1.17,3.31,1.77,5l1.78,5-.5,0c2-6.57,3.85-13.18,5.78-19.77l5.74-19.77,11.49-39.56.94,1.28a32.72,32.72,0,0,0-3.57.06,17.85,17.85,0,0,1-3.58,0l1-.78c.63,1.06.14,1.83-.05,2.68l-.71,2.5-1.44,5c-1,3.33-2,6.69-3,10l-3.12,9.66C261.24,141.26,260.26,144.4,259.31,147.45Zm-.1-1.94c.78-3.36,1.52-6.62,2.21-9.89l2.06-9.55c.67-3.14,1.41-6.19,2.15-9.26l1.15-4.6.59-2.3c.24-.76.18-1.59,1.24-2.13l1-.78a17.85,17.85,0,0,1,3.58,0,30.39,30.39,0,0,0,3.57.08l1.37,0-.42,1.34L265.52,147.7l-6.11,19.67c-2,6.56-4.1,13.1-6.07,19.67l-.21.69-.29-.65c-1.46-3.2-3-6.4-4.34-9.66l-4-9.76q-3.94-9.78-7.82-19.6c-2.6-6.54-5.1-13.11-7.66-19.66l-3.76-9.86-1.87-4.93-.94-2.46-.47-1.23c-.06-.22-.21-.4-.18-.64s.31-.59,1-1.08l.54-.78a47.57,47.57,0,0,0,5.34,0l5.33-.24c1.78-.07,3.56-.17,5.33-.2a19.94,19.94,0,0,1,5.34.21l.65.18.14.37,3.6,9.46c1.18,3.12,2.33,6.23,3.45,9.36C254.76,132.77,256.94,139.11,259.21,145.51Z"/><path d="M338.69,145.15l-6.47-18.24-3.2-9.2c-1.07-3.11-2.08-6-3.15-9l1.16.85a4.88,4.88,0,0,1-3,.62q-1.51,0-3,0c-2,0-4-.09-6-.16s-4-.14-6.06-.18c-1,0-2-.06-3,0-.51,0-1,.06-1.52.1-.25,0-.5.21-.75.22l-.76,0,1.88-2.65,25.54,76.89h-.5l13.09-38,6.53-19c2.19-6.33,4.33-12.67,6.57-19l.92,1.34c-1.06,0-2.12.09-3.18.1a12.07,12.07,0,0,1-1.59-.05,4.18,4.18,0,0,1-1.58-.42l.72-.51c.81.48.53.6.5.8l-.19.58-.38,1.15-.77,2.31-1.58,4.64c-1.09,3.08-2.19,6.18-3.35,9.19Zm0-2c.91-3.1,1.77-6.1,2.6-9.12l2.46-8.8c.81-2.9,1.67-5.71,2.55-8.56l1.37-4.24.7-2.12.36-1.07.18-.53c.09-.17-.07-.42.86-.31l.72-.51a4.26,4.26,0,0,1,1.6-.36,12.05,12.05,0,0,1,1.59,0c1.06,0,2.12.19,3.18.22l1.39,0-.47,1.3c-2.24,6.31-4.58,12.58-6.87,18.87L344,146.83l-13.79,37.71-.24.68-.26-.68L300.93,108.8l-1-2.64h2.89c.25,0,.51,0,.76,0s.5.21.76.22c.5.06,1,.11,1.51.13,1,0,2,0,3,0q3,0,6.07-.08c2,0,4-.06,6.06,0,1,0,2,0,3,0a4.85,4.85,0,0,1,3,.68l1.15.81v0c.88,3,1.8,6.06,2.67,8.92l2.63,8.7Z"/><path d="M23.15,101.92a8,8,0,0,1-1.46.6,9.9,9.9,0,0,1-1.51.32,13.26,13.26,0,0,1-1.57.09,8.31,8.31,0,0,1-2.69-.41,5.81,5.81,0,0,1-2.07-1.23,5.23,5.23,0,0,1-1.31-1.89A6.3,6.3,0,0,1,12.1,97a6.18,6.18,0,0,1,.52-2.6,5.08,5.08,0,0,1,1.44-1.86,6.32,6.32,0,0,1,2.11-1.09,8.87,8.87,0,0,1,2.49-.35A13.57,13.57,0,0,1,23.1,92v3.06a12,12,0,0,0-1.69-.89,5.08,5.08,0,0,0-2-.35,4.44,4.44,0,0,0-1.88.4,3.4,3.4,0,0,0-1.4,1.14,3,3,0,0,0-.07,3.32,3.31,3.31,0,0,0,1.3,1.15,3.92,3.92,0,0,0,1.86.43,6.16,6.16,0,0,0,1.58-.2,8.17,8.17,0,0,0,1.26-.45c.34-.17.69-.37,1-.59Z"/><path d="M47.84,102.78H44.37V98.29H39.15v4.49H35.68V91.28h3.47V95.5h5.22V91.28h3.47Z"/><path d="M73.56,102.78H70l-.94-2.33h-5l-.95,2.33H59.56l5.09-11.5h3.84Zm-5.29-4.33-1.68-4.2-1.7,4.2Z"/><path d="M96.43,102.78H92.7l-.91-2a8.79,8.79,0,0,0-.89-1.64,2,2,0,0,0-.78-.66,2.67,2.67,0,0,0-1-.15h-.39v4.49H85.29V91.28h5.9a4.27,4.27,0,0,1,2.34.58,3.44,3.44,0,0,1,1.31,1.41,3.61,3.61,0,0,1,.41,1.58,3,3,0,0,1-.34,1.47,2.75,2.75,0,0,1-.71.88,8.11,8.11,0,0,1-.84.52,3.34,3.34,0,0,1,.92.77,9,9,0,0,1,1,1.8Zm-4.72-7.87a1.18,1.18,0,0,0-.52-1.11,3.47,3.47,0,0,0-1.7-.31h-.73v2.77h.74A3.67,3.67,0,0,0,91.24,96,1.14,1.14,0,0,0,91.71,94.91Z"/><path d="M116.94,102.78H108.2V91.28h3.47V100h5.27Z"/><path d="M137.84,102.78h-8.68V91.28h8.53v2.31h-5.06v2.1h4.83V98h-4.83v2.46h5.21Z"/><path d="M158.4,99.44a3.17,3.17,0,0,1-.55,1.87,3.52,3.52,0,0,1-1.54,1.2,5.74,5.74,0,0,1-2.27.42c-.23,0-.53,0-.87,0a9.61,9.61,0,0,1-1.38-.26A10.25,10.25,0,0,1,150,102V99.2a11.77,11.77,0,0,0,1.72.89,4.52,4.52,0,0,0,1.8.36,1.61,1.61,0,0,0,1.15-.29.84.84,0,0,0,.26-.56.94.94,0,0,0-.44-.78,6.83,6.83,0,0,0-1.31-.66,11.14,11.14,0,0,1-1.66-.87,3.92,3.92,0,0,1-1.16-1.17,3,3,0,0,1-.46-1.67,3.12,3.12,0,0,1,.46-1.68,3.18,3.18,0,0,1,1.39-1.2,5.28,5.28,0,0,1,2.29-.45,7.74,7.74,0,0,1,1.79.19,6.88,6.88,0,0,1,1.34.42,5.12,5.12,0,0,1,.74.36v2.7a9.28,9.28,0,0,0-1.58-.9,4.34,4.34,0,0,0-1.85-.4,1.39,1.39,0,0,0-.94.25.75.75,0,0,0-.29.61.74.74,0,0,0,.29.59,4.86,4.86,0,0,0,1,.61,18.66,18.66,0,0,1,2.12,1.12A4.1,4.1,0,0,1,158,97.82,2.76,2.76,0,0,1,158.4,99.44Z"/><path d="M.68,114.57a15.32,15.32,0,0,0,6.94-2.78,20.52,20.52,0,0,0,5.07-5.28h0l.43-.53h.72q9.06-.14,18.12-.18l18.12-.12,36.23,0,36.24.21,18.12.13c6,.17,12.08-.47,18.12,1.48-6,2-12.08,1.32-18.12,1.49l-18.12.13-36.24.21-36.23,0L32,109.16q-9.06,0-18.12-.19l1.15-.54h0a23,23,0,0,1-6.59,4.71,16.3,16.3,0,0,1-7.72,1.54Z"/><path d="M2.64,117.19a15.82,15.82,0,0,0,7.27-2.26,21.8,21.8,0,0,0,5.7-5h0l.08-.09h.11l72.48,0,36.23,0h18.12c6,0,12.08-.07,18.12.24-6,.31-12.08.23-18.12.25H124.51l-36.23,0-72.48,0,.19-.08h0a22.14,22.14,0,0,1-6,5,16.09,16.09,0,0,1-7.4,2Z"/><path d="M156.21,86.54a52.55,52.55,0,0,1-9.82,1.33c-3.27.16-6.54.11-9.81.15L117,88.18c-13.08.13-26.17.1-39.25.15s-26.17,0-39.25-.16L18.82,88l-4.9,0-2.46,0a6.84,6.84,0,0,0-2.05.2c-2.66.63-5,2.61-7.45,5A9.89,9.89,0,0,1,4.1,88.39a9.16,9.16,0,0,1,4.58-3A9.82,9.82,0,0,1,11.49,85L14,85l4.9,0,19.62-.18c13.09-.11,26.17-.12,39.25-.16s26.16,0,39.24.15l19.62.15c3.27,0,6.55,0,9.82.16a52.44,52.44,0,0,1,9.81,1.33Z"/><path d="M154.25,83.91c-6.55.25-13.09.25-19.63.24H9.52a8.54,8.54,0,0,0-2.37.26A9.73,9.73,0,0,0,3,86.74a16.7,16.7,0,0,0-3,3.81,13.73,13.73,0,0,1,2.77-4.07A9.67,9.67,0,0,1,7,83.94a8.78,8.78,0,0,1,2.49-.28h125.1c6.54,0,13.08,0,19.63.24Z"/><path d="M206.79,111c7.69-.25,15.39-.25,23.08-.24H377a16.69,16.69,0,0,0,2.84-.13c3.78-.54,7-3.11,9.13-6.28a14.36,14.36,0,0,1-3.73,4.41,11.78,11.78,0,0,1-5.32,2.34,18,18,0,0,1-2.92.14H229.87c-7.69,0-15.39,0-23.08-.24Z"/><path d="M229.27,91.42l-5,11.65h-2l-3-6.78-3.06,6.78h-2l-4.88-11.65h3.59l2.4,6.37L218,91.42h2.49l2.69,6.37,2.49-6.37Z"/><path d="M253.37,97.16a6.1,6.1,0,0,1-.74,3,5.33,5.33,0,0,1-2.21,2.15,8.34,8.34,0,0,1-7.19,0,5.37,5.37,0,0,1-2.2-2.18,6.2,6.2,0,0,1,0-5.8,5.41,5.41,0,0,1,2.19-2.18,7.37,7.37,0,0,1,3.62-.82,8.09,8.09,0,0,1,2.84.47A6,6,0,0,1,251.74,93,5.54,5.54,0,0,1,253,94.9,6.37,6.37,0,0,1,253.37,97.16Zm-3.53,0a3.4,3.4,0,0,0-.2-1.18,2.34,2.34,0,0,0-.57-.93,2.75,2.75,0,0,0-.95-.62,3.57,3.57,0,0,0-1.28-.22,3,3,0,1,0,0,5.91,3.3,3.3,0,0,0,1.63-.38,2.58,2.58,0,0,0,1-1A3.26,3.26,0,0,0,249.84,97.16Z"/><path d="M274.47,102.92h-8.74V91.42h3.47v8.75h5.27Z"/><path d="M295.43,102.92h-8.74V91.42h3.47v8.75h5.27Z"/><path d="M319,97.16a6,6,0,0,1-.74,3,5.27,5.27,0,0,1-2.21,2.15,8.34,8.34,0,0,1-7.19,0,5.35,5.35,0,0,1-2.19-2.18,6.08,6.08,0,0,1-.72-2.9,6.19,6.19,0,0,1,.71-2.9,5.43,5.43,0,0,1,2.2-2.18,7.33,7.33,0,0,1,3.61-.82,8.09,8.09,0,0,1,2.84.47A5.87,5.87,0,0,1,317.35,93a5.4,5.4,0,0,1,1.22,1.89A6.16,6.16,0,0,1,319,97.16Zm-3.53,0a3.65,3.65,0,0,0-.19-1.18,2.48,2.48,0,0,0-.58-.93,2.8,2.8,0,0,0-.94-.62,3.63,3.63,0,0,0-1.29-.22,3,3,0,0,0-2.19,5.09,3,3,0,0,0,2.19.82,3.3,3.3,0,0,0,1.63-.38,2.46,2.46,0,0,0,1-1A3.26,3.26,0,0,0,315.45,97.16Z"/><path d="M341.65,102.06a8.41,8.41,0,0,1-1.47.6,9.78,9.78,0,0,1-1.5.32,13.43,13.43,0,0,1-1.58.09,8.31,8.31,0,0,1-2.69-.41,6,6,0,0,1-2.07-1.23A5.23,5.23,0,0,1,331,99.54a6.34,6.34,0,0,1-.43-2.38,6.19,6.19,0,0,1,.51-2.6,5,5,0,0,1,1.44-1.86,6.32,6.32,0,0,1,2.11-1.09,8.87,8.87,0,0,1,2.49-.35,13.57,13.57,0,0,1,4.44.87v3.06a11.9,11.9,0,0,0-1.68-.89,5.14,5.14,0,0,0-2-.35,4.36,4.36,0,0,0-1.87.4,3.49,3.49,0,0,0-1.41,1.13,3,3,0,0,0-.06,3.33,3.28,3.28,0,0,0,1.29,1.15,3.92,3.92,0,0,0,1.86.43,6.3,6.3,0,0,0,1.59-.2,7.37,7.37,0,0,0,1.25-.46,9.54,9.54,0,0,0,1.06-.59Z"/><path d="M366.33,102.92h-3.46V98.43h-5.22v4.49h-3.47V91.42h3.47v4.22h5.22V91.42h3.46Z"/><path d="M205.76,107.84a33.24,33.24,0,0,1,11.45-1.7c3.82-.06,7.64-.16,11.45-.19,7.63-.12,15.27-.06,22.9-.09,15.26.08,30.53.22,45.79.19s30.53-.06,45.8,0l11.45.06,11.44.16,5.73.08,2.86,0a15.74,15.74,0,0,0,2.62-.08,13.24,13.24,0,0,0,4.79-1.69,25.5,25.5,0,0,0,4.42-3.4,11.14,11.14,0,0,1-3.16,5.08,11,11,0,0,1-5.6,2.83,17,17,0,0,1-3.09.2l-2.87,0-5.72.08-11.45.15-11.45.07c-15.26.1-30.52,0-45.78,0s-30.53.1-45.79.18c-7.63,0-15.26,0-22.89-.09-3.82,0-7.63-.13-11.45-.19A33,33,0,0,1,205.76,108Z"/><path d="M387.91,79.81a19.35,19.35,0,0,0-7.85,2.72,23,23,0,0,0-6.05,5.4h0l-.43.46h-.66q-10.32.13-20.64.18l-20.63.13H290.37l-41.28-.21-20.64-.12c-6.88-.17-13.75.46-20.63-1.49,6.88-2,13.75-1.32,20.63-1.49l20.64-.12,41.28-.22,41.28,0,20.63.12c6.88,0,13.76.09,20.64.19l-1.09.47h0a25.17,25.17,0,0,1,7.53-4.73,20.23,20.23,0,0,1,8.54-1.45Z"/><path d="M385.68,77.18a19.87,19.87,0,0,0-8.14,2.19,23.83,23.83,0,0,0-6.67,5.13h0l-.08.08h-.1l-82.55,0-41.28,0H226.22c-6.88,0-13.76.07-20.64-.24,6.88-.31,13.76-.23,20.64-.25h20.64l41.28,0,82.55,0-.18.08h0a24.27,24.27,0,0,1,6.92-5,20,20,0,0,1,8.25-2Z"/></g></g></svg>