<svg xmlns="http://www.w3.org/2000/svg" viewBox="0 0 608.49 791.26"><defs><style>.cls-1{fill:#fff;}.cls-2{font-size:14px;font-family:Arial-BoldMT, Arial;font-weight:700;}.cls-13,.cls-14,.cls-15,.cls-16,.cls-17,.cls-2{fill:#222;}.cls-15,.cls-3{letter-spacing:-0.02em;}.cls-13,.cls-14,.cls-15,.cls-16,.cls-17,.cls-4,.cls-7,.cls-8{font-size:11px;}.cls-16,.cls-5{letter-spacing:-0.04em;}.cls-6{letter-spacing:-0.07em;}.cls-7{fill:blue;text-decoration:underline;}.cls-11,.cls-8{font-family:ArialMT, Arial;font-weight:400;}.cls-17,.cls-9{letter-spacing:-0.06em;}.cls-10{letter-spacing:-0.09em;}.cls-11{font-size:12px;fill:#000;}.cls-12{letter-spacing:2.39em;}.cls-14{letter-spacing:-0.02em;}.cls-18{letter-spacing:-0.13em;}.cls-19{letter-spacing:-0.06em;}.cls-20{letter-spacing:0em;}.cls-21{letter-spacing:-0.06em;}</style></defs><g id="Layer_2" data-name="Layer 2"><g id="Layer_1-2" data-name="Layer 1"><rect class="cls-1" width="608.49" height="791.26"/><text class="cls-2"><tspan x="238.68" y="48.14">Charles Levi </tspan><tspan class="cls-3" x="325.84" y="48.14">W</tspan><tspan x="338.8" y="48.14">olloch</tspan><tspan class="cls-4"><tspan x="248.61" y="61.34">3400 Lancaster</tspan><tspan class="cls-5" x="328.11" y="61.34" xml:space="preserve"> A</tspan><tspan x="338.3" y="61.34">venue</tspan><tspan x="249.84" y="74.54">Philadelphia </tspan><tspan class="cls-6" x="317.69" y="74.54">P</tspan><tspan x="324.21" y="74.54">A, 19104</tspan></tspan><tspan class="cls-7"><tspan x="235.22" y="87.74">charleswolloch@yahoo.com</tspan></tspan><tspan class="cls-4"><tspan x="271.74" y="100.94">(917) 710-0987</tspan><tspan x="52.85" y="140.54">Education:</tspan></tspan><tspan class="cls-8"><tspan x="52.85" y="153.74">Drexel Universit</tspan><tspan class="cls-6" x="130.48" y="153.74">y</tspan><tspan x="135.16" y="153.74">, Philadelphia </tspan><tspan class="cls-6" x="204.27" y="153.74">P</tspan><tspan class="cls-9" x="210.79" y="153.74">A</tspan><tspan x="52.85" y="166.94">Interactive Digital Media,</tspan><tspan class="cls-9" x="173.29" y="166.94"> </tspan><tspan x="175.74" y="166.94">Anticipated Graduation: June 2022</tspan><tspan x="52.85" y="180.14">Cumulative G</tspan><tspan class="cls-6" x="119.48" y="180.14">P</tspan><tspan x="126.01" y="180.14">A: 3.65</tspan></tspan><tspan class="cls-4"><tspan x="52.85" y="206.54">Experience:</tspan></tspan><tspan class="cls-8"><tspan x="52.85" y="232.94">Salesforce, New</tspan><tspan class="cls-3" x="132.94" y="232.94"> </tspan><tspan class="cls-10" x="135.8" y="232.94">Y</tspan><tspan x="142.12" y="232.94">ork, N</tspan><tspan class="cls-3" x="171.46" y="232.94">Y</tspan><tspan x="52.85" y="246.14">Futureforce Intern, Solution Engineer – Platform Specialist team – June to September 2019</tspan></tspan><tspan class="cls-11"><tspan x="88.85" y="260.54">-</tspan><tspan class="cls-12" x="92.85" y="260.54">	</tspan><tspan class="cls-13" x="124.85" y="260.54">Redesigned internal team logo</tspan><tspan x="88.85" y="274.94">-</tspan><tspan class="cls-12" x="92.85" y="274.94">	</tspan><tspan class="cls-13" x="124.85" y="274.94">Redesigned internal slide deck asset known as the Onion Slide</tspan><tspan x="88.85" y="289.34">-</tspan><tspan class="cls-12" x="92.85" y="289.34">	</tspan><tspan class="cls-13" x="124.85" y="289.34">Migrated internal community from google sites to salesforce community</tspan><tspan x="88.85" y="303.74">-</tspan><tspan class="cls-12" x="92.85" y="303.74">	</tspan><tspan class="cls-13" x="124.85" y="303.74">Created guide for customer on how to remove alpha channel from PNG</tspan><tspan x="88.85" y="318.14">-</tspan><tspan class="cls-12" x="92.85" y="318.14">	</tspan><tspan class="cls-13" x="124.85" y="318.14">Performed ramping guide link check</tspan></tspan><tspan class="cls-8"><tspan x="52.85" y="344.54">Salesforce, New</tspan><tspan class="cls-3" x="132.94" y="344.54"> </tspan><tspan class="cls-10" x="135.8" y="344.54">Y</tspan><tspan x="142.12" y="344.54">ork, N</tspan><tspan class="cls-3" x="171.46" y="344.54">Y</tspan><tspan x="52.85" y="357.74">Futureforce Intern, Solution Engineer - Ignite UX team – June to September 2018</tspan></tspan><tspan class="cls-11"><tspan x="88.85" y="372.14">-</tspan><tspan class="cls-12" x="92.85" y="372.14">	</tspan><tspan class="cls-13" x="124.85" y="372.14">Conducted internal discovery</tspan><tspan x="88.85" y="386.54">-</tspan><tspan class="cls-12" x="92.85" y="386.54">	</tspan><tspan class="cls-13" x="124.85" y="386.54">Participated in customer on-sites</tspan><tspan x="88.85" y="400.94">-</tspan><tspan class="cls-12" x="92.85" y="400.94">	</tspan><tspan class="cls-13" x="124.85" y="400.94">Shadowed and assisted multiple teams in di</tspan><tspan class="cls-14" x="338.86" y="400.94">f</tspan><tspan class="cls-13" x="341.72" y="400.94">ferent segments</tspan><tspan x="88.85" y="415.34">-</tspan><tspan class="cls-12" x="92.85" y="415.34">	</tspan><tspan class="cls-13" x="124.85" y="415.34">Synthesized information into video entries</tspan><tspan x="88.85" y="429.74">-</tspan><tspan class="cls-12" x="92.85" y="429.74">	</tspan><tspan class="cls-13" x="124.85" y="429.74">Presented design challenge solution</tspan><tspan x="88.85" y="444.14">-</tspan><tspan class="cls-12" x="92.85" y="444.14">	</tspan><tspan class="cls-13" x="124.85" y="444.14">Researched </tspan><tspan class="cls-15" x="187.22" y="444.14">V</tspan><tspan class="cls-13" x="194.36" y="444.14">irtual/Augmented realities</tspan></tspan><tspan class="cls-8"><tspan x="52.85" y="470.54">Salesforce, New</tspan><tspan class="cls-3" x="132.94" y="470.54"> </tspan><tspan class="cls-10" x="135.8" y="470.54">Y</tspan><tspan x="142.12" y="470.54">ork, N</tspan><tspan class="cls-3" x="171.46" y="470.54">Y</tspan><tspan x="52.85" y="483.74">Futureforce Intern, Solution Engineer - Ignite UX team – June to September 2017</tspan></tspan><tspan class="cls-11"><tspan x="88.85" y="498.14">-</tspan><tspan class="cls-12" x="92.85" y="498.14">	</tspan><tspan class="cls-13" x="124.85" y="498.14">Multiple discovery calls, synthesized and recommended product solutions</tspan><tspan x="88.85" y="512.54">-</tspan><tspan class="cls-12" x="92.85" y="512.54">	</tspan><tspan class="cls-13" x="124.85" y="512.54">Digital audits and market research in preparation for on-site customer meetings</tspan><tspan x="88.85" y="526.94">-</tspan><tspan class="cls-12" x="92.85" y="526.94">	</tspan><tspan class="cls-13" x="124.85" y="526.94">Shadowed multiple sales reps to learn sales strategies</tspan><tspan x="88.85" y="541.34">-</tspan><tspan class="cls-12" x="92.85" y="541.34">	</tspan><tspan class="cls-13" x="124.85" y="541.34">Achieved</tspan><tspan class="cls-15" x="170.1" y="541.34"> </tspan><tspan class="cls-16" x="172.96" y="541.34">T</tspan><tspan class="cls-13" x="179.27" y="541.34">railhead Ranger requiring 100 badges and 50,000 points of learning</tspan><tspan x="88.85" y="555.74">-</tspan><tspan class="cls-12" x="92.85" y="555.74">	</tspan><tspan class="cls-13" x="124.85" y="555.74">Completed</tspan><tspan class="cls-17" x="178.05" y="555.74"> </tspan><tspan class="cls-13" x="180.5" y="555.74">Admin 201 training</tspan><tspan x="88.85" y="570.14">-</tspan><tspan class="cls-12" x="92.85" y="570.14">	</tspan><tspan class="cls-13" x="124.85" y="570.14">Delivered capstone presentation on the David</tspan><tspan class="cls-14" x="347.43" y="570.14">’</tspan><tspan class="cls-13" x="349.68" y="570.14">s Bridal sales cycle</tspan></tspan><tspan class="cls-8"><tspan x="52.85" y="596.54">Intrepid Sea,</tspan><tspan class="cls-9" x="115.23" y="596.54"> </tspan><tspan x="117.67" y="596.54">Ai</tspan><tspan class="cls-9" x="127.46" y="596.54">r</tspan><tspan x="130.51" y="596.54">, and Space Museum, New</tspan><tspan class="cls-3" x="262.58" y="596.54"> </tspan><tspan class="cls-10" x="265.43" y="596.54">Y</tspan><tspan x="271.76" y="596.54">ork, N</tspan><tspan class="cls-3" x="301.1" y="596.54">Y</tspan><tspan x="308.24" y="596.54"> </tspan><tspan x="52.85" y="609.74">Docent, May to June 2017</tspan></tspan><tspan class="cls-11"><tspan x="88.85" y="624.14">-</tspan><tspan class="cls-12" x="92.85" y="624.14">	</tspan><tspan class="cls-13" x="124.85" y="624.14">Guided tours of submarine and aircraft carrier</tspan><tspan x="88.85" y="638.54">-</tspan><tspan class="cls-12" x="92.85" y="638.54">	</tspan><tspan class="cls-13" x="124.85" y="638.54">Gave briefings on naval history relevant to the museum and exhibits</tspan></tspan><tspan class="cls-4"><tspan x="52.85" y="664.94">Skills, Interests, &amp;</tspan><tspan class="cls-5" x="147.61" y="664.94"> </tspan><tspan x="150.26" y="664.94">Affiliations</tspan></tspan><tspan class="cls-8"><tspan x="52.85" y="678.14">Coding Languages: HTML, CSS, JavaScript, PH</tspan><tspan class="cls-18" x="288.85" y="678.14">P</tspan><tspan x="294.77" y="678.14">, MySQ</tspan><tspan class="cls-5" x="331.44" y="678.14">L</tspan><tspan x="52.85" y="691.34">Skills: UX Design, User Interface Design, User Interaction Design, Photograph</tspan><tspan class="cls-6" x="433.74" y="691.34">y</tspan><tspan x="438.43" y="691.34">,</tspan><tspan class="cls-19" x="441.48" y="691.34"> </tspan><tspan class="cls-20" x="443.93" y="691.34">Animation,</tspan><tspan class="cls-21" x="495.9" y="691.34"> </tspan><tspan x="498.35" y="691.34">Audio Post </tspan><tspan x="52.85" y="704.54">Production, </tspan><tspan class="cls-3" x="111.55" y="704.54">W</tspan><tspan x="121.74" y="704.54">eb Development, HFE </tspan><tspan x="52.85" y="717.74">Physical Prototyping: 3D printing, Laser Cutting,</tspan><tspan class="cls-9" x="286.41" y="717.74"> </tspan><tspan x="288.86" y="717.74">Arduino</tspan><tspan x="52.85" y="730.94">Adobe CC: Illustrato</tspan><tspan class="cls-9" x="151.29" y="730.94">r</tspan><tspan x="154.34" y="730.94">, Photoshop, XD,</tspan><tspan class="cls-9" x="237.5" y="730.94"> </tspan><tspan x="239.95" y="730.94">After E</tspan><tspan class="cls-3" x="273.58" y="730.94">f</tspan><tspan x="276.43" y="730.94">fects, Premiere Pro, Bridge</tspan><tspan x="52.85" y="744.14">Other: </tspan><tspan class="cls-3" x="86.47" y="744.14">W</tspan><tspan x="96.66" y="744.14">oodworking, Glassblowing</tspan><tspan x="52.85" y="757.34">A</tspan><tspan class="cls-3" x="60.19" y="757.34">f</tspan><tspan x="63.05" y="757.34">filiations:</tspan><tspan class="cls-9" x="105.84" y="757.34"> </tspan><tspan x="108.29" y="757.34">Alpha Epsilon Pi Fraternity</tspan></tspan></text></g></g></svg>